<svg xmlns="http://www.w3.org/2000/svg" xmlns:xlink="http://www.w3.org/1999/xlink" width="1024" zoomAndPan="magnify" viewBox="0 0 768 767.999994" height="1024" preserveAspectRatio="xMidYMid meet" version="1.0"><defs><clipPath id="244b0e21f1"><path d="M 6 30.71875 L 758 30.71875 L 758 723 L 6 723 Z M 6 30.71875 " clip-rule="nonzero"/></clipPath></defs><g clip-path="url(#244b0e21f1)"><path fill="#f6a2b7" d="M 504.691406 722.871094 C 495.132812 722.863281 485.621094 722.222656 476.152344 720.9375 C 442.78125 716.425781 398.003906 696.304688 371.722656 670.546875 C 318.832031 723.664062 228.339844 736.726562 163.738281 697.464844 C 130.140625 677.0625 104.113281 639.679688 92.332031 594.910156 C 82.632812 558.0625 83.398438 519.875 94.132812 487.355469 C 64.789062 475.351562 40.53125 451.234375 24.621094 417.847656 C 1.117188 368.503906 -0.0585938 308.597656 21.613281 265.230469 C 54.875 198.671875 136.261719 163.382812 207.582031 181.070312 C 213.023438 154.851562 226.710938 127.753906 228.691406 123.902344 C 255.585938 71.820312 320.445312 35.488281 393.945312 31.34375 C 395.203125 31.273438 396.398438 31.214844 397.625 31.183594 C 405.015625 30.886719 412.347656 30.925781 419.417969 31.3125 C 420.511719 31.359375 421.769531 31.441406 423.023438 31.523438 L 423.328125 31.546875 C 434.613281 32.207031 445.738281 33.898438 456.703125 36.625 C 467.671875 39.355469 478.296875 43.070312 488.570312 47.773438 C 537.5625 70.996094 569.773438 114.171875 579.125 168.050781 C 583.101562 167.132812 587.109375 166.390625 591.148438 165.816406 C 595.1875 165.242188 599.246094 164.84375 603.320312 164.617188 C 607.394531 164.386719 611.46875 164.335938 615.546875 164.457031 C 619.628906 164.574219 623.691406 164.871094 627.746094 165.335938 C 631.800781 165.804688 635.828125 166.441406 639.824219 167.253906 C 643.824219 168.0625 647.78125 169.042969 651.699219 170.191406 C 655.613281 171.339844 659.472656 172.652344 663.277344 174.128906 C 667.078125 175.605469 670.8125 177.242188 674.476562 179.039062 C 745.234375 214.257812 768.054688 299.253906 754.015625 365.011719 C 742.710938 418.101562 711.304688 454.621094 655.824219 478.609375 C 669.261719 503.273438 673.210938 535.816406 674.230469 547.480469 C 678.605469 597.785156 662.160156 643.472656 627.921875 676.125 C 596.09375 706.476562 552.261719 722.871094 504.691406 722.871094 Z M 373.378906 614.964844 L 386.277344 635.882812 C 401.09375 659.886719 449.164062 683.472656 480.636719 687.726562 C 528.835938 694.238281 574.097656 681.160156 604.792969 651.875 C 631.90625 626.015625 644.378906 590.917969 640.847656 550.375 C 639.035156 529.578125 631.539062 494.734375 618.339844 484.023438 L 594.828125 464.941406 L 623.484375 455.171875 C 680.964844 435.558594 711.117188 405.601562 721.246094 358.027344 C 732.3125 306.183594 714.445312 236.34375 659.550781 209.023438 C 656.140625 207.351562 652.652344 205.859375 649.085938 204.550781 C 645.519531 203.242188 641.894531 202.125 638.210938 201.191406 C 634.527344 200.261719 630.804688 199.527344 627.046875 198.984375 C 623.285156 198.441406 619.507812 198.097656 615.710938 197.949219 C 611.914062 197.800781 608.121094 197.851562 604.332031 198.097656 C 600.539062 198.34375 596.773438 198.789062 593.027344 199.429688 C 589.285156 200.070312 585.582031 200.902344 581.925781 201.929688 C 578.269531 202.953125 574.671875 204.167969 571.140625 205.570312 L 549.578125 214.277344 L 548.152344 191.066406 C 544.941406 139.261719 518.699219 99.125 474.226562 78.046875 C 465.832031 74.261719 457.160156 71.269531 448.21875 69.070312 C 439.277344 66.871094 430.207031 65.503906 421.015625 64.960938 L 420.792969 64.960938 C 419.796875 64.894531 418.796875 64.824219 417.78125 64.78125 C 411.542969 64.445312 405.238281 64.410156 398.867188 64.671875 L 398.589844 64.671875 C 397.628906 64.695312 396.699219 64.746094 395.765625 64.796875 C 333.9375 68.277344 280.007812 97.515625 258.460938 139.269531 C 248.082031 159.367188 237.9375 188.441406 238.917969 202.265625 L 240.859375 229.320312 L 215.800781 218.9375 C 156.839844 194.492188 80.101562 223.125 51.578125 280.207031 C 34.605469 314.15625 35.925781 363.683594 54.867188 403.445312 C 69.484375 434.152344 92.621094 454.402344 120.011719 460.480469 L 140.625 465.058594 L 131.488281 484.089844 C 117.664062 512.839844 115.203125 550.136719 124.742188 586.386719 C 134.335938 622.84375 154.890625 652.894531 181.132812 668.835938 C 237.648438 703.171875 318.929688 687.511719 358.625 634.632812 Z M 373.378906 614.964844 " fill-opacity="1" fill-rule="nonzero"/></g><path fill="#feeeee" d="M 666.996094 194.03125 C 663.054688 192.097656 659.023438 190.375 654.902344 188.863281 C 650.78125 187.351562 646.59375 186.054688 642.339844 184.980469 C 638.082031 183.90625 633.78125 183.054688 629.4375 182.425781 C 625.09375 181.800781 620.726562 181.402344 616.34375 181.230469 C 611.957031 181.058594 607.574219 181.117188 603.191406 181.402344 C 598.8125 181.6875 594.460938 182.199219 590.132812 182.941406 C 585.804688 183.679688 581.53125 184.644531 577.304688 185.828125 C 573.078125 187.015625 568.925781 188.417969 564.84375 190.039062 C 561.410156 134.152344 532.9375 87.339844 481.398438 62.914062 C 472.070312 58.675781 462.429688 55.324219 452.484375 52.859375 C 442.535156 50.398438 432.445312 48.863281 422.214844 48.257812 C 420.988281 48.175781 419.757812 48.089844 418.5 48.035156 C 411.800781 47.671875 404.992188 47.644531 398.179688 47.921875 C 397.0625 47.949219 395.972656 48.007812 394.882812 48.0625 C 333.546875 51.523438 270.011719 80.386719 243.570312 131.582031 C 234.550781 149.058594 220.761719 183.171875 222.210938 203.464844 C 155.078125 175.632812 69.066406 207.734375 36.597656 272.730469 C 2.59375 340.757812 33.640625 458.476562 116.382812 476.84375 C 84.195312 543.808594 108.960938 644.609375 172.441406 683.160156 C 235.921875 721.710938 327.4375 704.097656 372.023438 644.695312 C 389.640625 673.25 442.066406 699.433594 478.386719 704.347656 C 578.667969 717.859375 666.550781 652.621094 657.53125 548.945312 C 656.609375 538.394531 650.800781 488.816406 628.886719 471.035156 C 683.378906 452.445312 724.835938 421.570312 737.625 361.527344 C 751 298.847656 726.90625 223.84375 666.996094 194.03125 Z M 666.996094 194.03125 " fill-opacity="1" fill-rule="nonzero"/><path fill="#f6a2b7" d="M 688.046875 207.433594 C 687.128906 206.707031 686.179688 206.011719 685.253906 205.3125 C 509.683594 205.765625 258.925781 208.546875 94.21875 213.625 C 92.914062 214.363281 91.617188 215.109375 90.332031 215.882812 C 255.816406 210.695312 511.089844 207.871094 688.046875 207.433594 Z M 688.046875 207.433594 " fill-opacity="1" fill-rule="nonzero"/><path fill="#f6a2b7" d="M 637.410156 638.132812 C 527.101562 641.160156 272.914062 643.753906 133.691406 645.914062 C 134.207031 646.648438 134.71875 647.375 135.246094 648.097656 C 198.835938 647.113281 285.679688 646.046875 371.851562 644.886719 C 371.910156 644.8125 371.96875 644.746094 372.023438 644.675781 C 372.066406 644.746094 372.117188 644.8125 372.15625 644.882812 C 474.550781 643.503906 575.90625 642 636.039062 640.375 C 636.511719 639.652344 636.949219 638.886719 637.410156 638.132812 Z M 637.410156 638.132812 " fill-opacity="1" fill-rule="nonzero"/><path fill="#f6a2b7" d="M 247.296875 124.984375 C 246.847656 125.722656 246.394531 126.457031 245.964844 127.21875 C 343.746094 125.921875 457.859375 124.5 546.074219 122.945312 C 545.664062 122.207031 545.199219 121.5 544.777344 120.769531 C 457.148438 122.296875 344.265625 123.703125 247.296875 124.984375 Z M 247.296875 124.984375 " fill-opacity="1" fill-rule="nonzero"/><path fill="#f6a2b7" d="M 103.980469 567.53125 C 104.078125 568.238281 104.171875 568.945312 104.273438 569.652344 C 259.234375 565.867188 486.847656 563.792969 658.101562 563.453125 C 658.101562 562.746094 658.101562 562.042969 658.101562 561.328125 C 486.527344 561.671875 258.914062 563.738281 103.980469 567.53125 Z M 103.980469 567.53125 " fill-opacity="1" fill-rule="nonzero"/><path fill="#f6a2b7" d="M 115.191406 479.503906 C 114.867188 480.210938 114.542969 480.921875 114.238281 481.636719 L 636.859375 479.746094 C 636.34375 479.019531 635.808594 478.3125 635.269531 477.625 Z M 115.191406 479.503906 " fill-opacity="1" fill-rule="nonzero"/><path fill="#f6a2b7" d="M 26.738281 300.921875 C 26.582031 301.625 26.460938 302.351562 26.308594 303.058594 C 196.292969 300.886719 524.949219 301.582031 739.796875 305.097656 C 739.707031 304.386719 739.609375 303.671875 739.519531 302.957031 C 525.371094 299.445312 196.738281 298.75 26.738281 300.921875 Z M 26.738281 300.921875 " fill-opacity="1" fill-rule="nonzero"/><path fill="#f6a2b7" d="M 31.753906 390.398438 C 31.980469 391.101562 32.191406 391.8125 32.429688 392.511719 C 201.097656 388.5 516.265625 385.660156 730.996094 384.019531 C 731.273438 383.3125 731.539062 382.601562 731.800781 381.882812 C 516.539062 383.523438 200.515625 386.371094 31.753906 390.398438 Z M 31.753906 390.398438 " fill-opacity="1" fill-rule="nonzero"/><path fill="#f37e87" d="M 150.414062 512.0625 L 152.035156 194.566406 C 151.105469 194.683594 150.167969 194.773438 149.242188 194.902344 L 147.625 512.039062 C 147.367188 562.191406 147.125 613.339844 149.078125 664.496094 C 150.03125 665.464844 151 666.417969 151.988281 667.351562 C 149.914062 615.265625 150.15625 563.148438 150.414062 512.0625 Z M 150.414062 512.0625 " fill-opacity="1" fill-rule="nonzero"/></svg>