<svg xmlns="http://www.w3.org/2000/svg" xmlns:xlink="http://www.w3.org/1999/xlink" width="1024" zoomAndPan="magnify" viewBox="0 0 768 767.999994" height="1024" preserveAspectRatio="xMidYMid meet" version="1.0"><path fill="#000000" d="M 447.984375 281.25 C 432.839844 281.25 420.5625 293.527344 420.5625 308.671875 L 420.5625 502.453125 C 420.5625 517.597656 432.839844 529.875 447.984375 529.875 C 463.128906 529.875 475.40625 517.597656 475.40625 502.453125 L 475.40625 308.671875 C 475.40625 293.527344 463.128906 281.25 447.984375 281.25 Z M 447.984375 281.25 " fill-opacity="1" fill-rule="nonzero"/><path fill="#000000" d="M 384 0 C 171.921875 0 0 171.921875 0 384 C 0 596.078125 171.921875 768 384 768 C 596.078125 768 768 596.078125 768 384 C 768 171.921875 596.078125 0 384 0 Z M 548.53125 244.6875 L 548.53125 548.15625 C 548.53125 578.445312 523.976562 603 493.6875 603 L 274.3125 603 C 244.023438 603 219.472656 578.445312 219.472656 548.15625 L 219.472656 244.6875 C 199.277344 244.6875 182.910156 228.316406 182.910156 208.125 C 182.910156 187.933594 199.277344 171.5625 219.472656 171.5625 L 294.164062 171.5625 C 299.011719 171.5625 303.664062 169.636719 307.09375 166.207031 L 332.945312 140.351562 C 336.375 136.925781 341.023438 135 345.871094 135 L 422.132812 135 C 426.984375 135 431.632812 136.925781 435.0625 140.351562 L 460.914062 166.207031 C 464.34375 169.636719 468.992188 171.5625 473.84375 171.5625 L 548.535156 171.5625 C 568.726562 171.5625 585.097656 187.933594 585.097656 208.125 C 585.097656 228.316406 568.722656 244.6875 548.53125 244.6875 Z M 548.53125 244.6875 " fill-opacity="1" fill-rule="nonzero"/><path fill="#000000" d="M 320.015625 281.25 C 304.871094 281.25 292.59375 293.527344 292.59375 308.671875 L 292.59375 502.453125 C 292.59375 517.597656 304.871094 529.875 320.015625 529.875 C 335.160156 529.875 347.4375 517.597656 347.4375 502.453125 L 347.4375 308.671875 C 347.4375 293.527344 335.160156 281.25 320.015625 281.25 Z M 320.015625 281.25 " fill-opacity="1" fill-rule="nonzero"/></svg>