<svg xmlns="http://www.w3.org/2000/svg" xmlns:xlink="http://www.w3.org/1999/xlink" width="1024" zoomAndPan="magnify" viewBox="0 0 768 767.999994" height="1024" preserveAspectRatio="xMidYMid meet" version="1.0"><path fill="#000000" d="M 640 0 L 128 0 C 57.425781 0 0 57.425781 0 128 L 0 640 C 0 710.574219 57.425781 768 128 768 L 640 768 C 710.574219 768 768 710.574219 768 640 L 768 128 C 768 57.425781 710.574219 0 640 0 Z M 716.800781 640 C 716.800781 682.351562 682.351562 716.800781 640 716.800781 L 128 716.800781 C 85.648438 716.800781 51.199219 682.351562 51.199219 640 L 51.199219 128 C 51.199219 85.648438 85.648438 51.199219 128 51.199219 L 640 51.199219 C 682.351562 51.199219 716.800781 85.648438 716.800781 128 Z M 716.800781 640 " fill-opacity="1" fill-rule="nonzero"/><path fill="#1e1e1e" d="M 517.949219 358.398438 L 409.601562 358.398438 L 409.601562 250.050781 C 409.601562 235.898438 398.148438 224.449219 384 224.449219 C 369.851562 224.449219 358.398438 235.898438 358.398438 250.050781 L 358.398438 358.398438 L 250.050781 358.398438 C 235.898438 358.398438 224.449219 369.851562 224.449219 384 C 224.449219 398.148438 235.898438 409.601562 250.050781 409.601562 L 358.398438 409.601562 L 358.398438 517.949219 C 358.398438 532.101562 369.851562 543.550781 384 543.550781 C 398.148438 543.550781 409.601562 532.101562 409.601562 517.949219 L 409.601562 409.601562 L 517.949219 409.601562 C 532.101562 409.601562 543.550781 398.148438 543.550781 384 C 543.550781 369.851562 532.101562 358.398438 517.949219 358.398438 Z M 517.949219 358.398438 " fill-opacity="1" fill-rule="nonzero"/></svg>