<svg xmlns="http://www.w3.org/2000/svg" xmlns:xlink="http://www.w3.org/1999/xlink" width="1024" zoomAndPan="magnify" viewBox="0 0 768 767.999994" height="1024" preserveAspectRatio="xMidYMid meet" version="1.0"><defs><clipPath id="dfb5d05cef"><path d="M 0 152 L 503 152 L 503 704.289062 L 0 704.289062 Z M 0 152 " clip-rule="nonzero"/></clipPath></defs><g clip-path="url(#dfb5d05cef)"><path fill="#040606" d="M 227.183594 551.640625 C 175.433594 499.984375 154.433594 428.023438 164.933594 360.148438 L 242.523438 386.042969 L 185.113281 152.503906 L 0 306.039062 L 80.863281 332.683594 C 60.613281 431.292969 88.910156 537.941406 164.933594 613.859375 C 256.296875 705.175781 390.476562 726.984375 502.023438 680.914062 L 481.023438 594.503906 C 398.589844 634.917969 295.910156 620.332031 227.183594 551.640625 " fill-opacity="1" fill-rule="nonzero"/></g><path fill="#040606" d="M 687.136719 457.121094 C 707.386719 358.578125 679.089844 251.929688 603.066406 175.945312 C 511.773438 84.628906 377.523438 62.820312 265.976562 108.886719 L 286.976562 195.300781 C 369.476562 154.957031 472.089844 169.472656 540.816406 238.164062 C 592.566406 289.886719 613.566406 361.78125 603.066406 429.65625 L 525.476562 403.828125 L 582.886719 637.300781 L 768 483.765625 L 687.136719 457.121094 " fill-opacity="1" fill-rule="nonzero"/></svg>